HIERARCHY
ROOT root
{
  OFFSET 0 98.6856 0
  CHANNELS 6 Xposition Yposition Zposition Zrotation Xrotation Yrotation
  JOINT torso_1
  {
    OFFSET 0 5.37224 -1.21793
    CHANNELS 6 Xposition Yposition Zposition Zrotation Xrotation Yrotation
    JOINT torso_2
    {
      OFFSET 0 5.94127 1.13336
      CHANNELS 6 Xposition Yposition Zposition Zrotation Xrotation Yrotation
      JOINT torso_3
      {
        OFFSET -1.08535e-17 6.33601 0.121658
        CHANNELS 6 Xposition Yposition Zposition Zrotation Xrotation Yrotation
        JOINT torso_4
        {
          OFFSET -1.16841e-17 6.88189 -0.46916
          CHANNELS 6 Xposition Yposition Zposition Zrotation Xrotation Yrotation
          JOINT torso_5
          {
            OFFSET -2.08699e-17 8.0451 -1.59297
            CHANNELS 6 Xposition Yposition Zposition Zrotation Xrotation Yrotation
            JOINT torso_6
            {
              OFFSET -2.67949e-17 10.0463 -0.967353
              CHANNELS 6 Xposition Yposition Zposition Zrotation Xrotation Yrotation
              JOINT torso_7
              {
                OFFSET -3.07187e-17 11.1612 1.66806
                CHANNELS 6 Xposition Yposition Zposition Zrotation Xrotation Yrotation
                JOINT neck_1
                {
                  OFFSET -1.36661e-17 5.06312 0.756688
                  CHANNELS 6 Xposition Yposition Zposition Zrotation Xrotation Yrotation
                  JOINT neck_2
                  {
                    OFFSET -1.91632e-17 5.09976 0.446172
                    CHANNELS 6 Xposition Yposition Zposition Zrotation Xrotation Yrotation
                    JOINT head
                    {
                      OFFSET -2.12574e-17 5.10962 0.809285
                      CHANNELS 6 Xposition Yposition Zposition Zrotation Xrotation Yrotation
                      End Site
                      {
                        OFFSET 0 0.1 0
                      }
                    }
                  }
                }
                JOINT l_shoulder
                {
                  OFFSET 1.30426 -8.04703 7.96922
                  CHANNELS 6 Xposition Yposition Zposition Zrotation Xrotation Yrotation
                  JOINT l_up_arm
                  {
                    OFFSET 13.7035 3.43734 -3.45766
                    CHANNELS 6 Xposition Yposition Zposition Zrotation Xrotation Yrotation
                    JOINT l_low_arm
                    {
                      OFFSET 30.8964 0.0632652 0.14496
                      CHANNELS 6 Xposition Yposition Zposition Zrotation Xrotation Yrotation
                      JOINT l_hand
                      {
                        OFFSET 25.6348 0.0524902 0.120274
                        CHANNELS 6 Xposition Yposition Zposition Zrotation Xrotation Yrotation
                        End Site
                        {
                          OFFSET 0.1 0 0
                        }
                      }
                    }
                  }
                }
                JOINT r_shoulder
                {
                  OFFSET -1.30426 -8.04702 7.96912
                  CHANNELS 6 Xposition Yposition Zposition Zrotation Xrotation Yrotation
                  JOINT r_up_arm
                  {
                    OFFSET -13.7035 3.43734 -3.45766
                    CHANNELS 6 Xposition Yposition Zposition Zrotation Xrotation Yrotation
                    JOINT r_low_arm
                    {
                      OFFSET -30.8964 0.0632652 0.14496
                      CHANNELS 6 Xposition Yposition Zposition Zrotation Xrotation Yrotation
                      JOINT r_hand
                      {
                        OFFSET -25.6348 0.0524901 0.120274
                        CHANNELS 6 Xposition Yposition Zposition Zrotation Xrotation Yrotation
                        End Site
                        {
                          OFFSET -0.1 0 0
                        }
                      }
                    }
                  }
                }
              }
            }
          }
        }
      }
    }
  }
  JOINT l_up_leg
  {
    OFFSET 9.77065 -4.44866 2.1502
    CHANNELS 6 Xposition Yposition Zposition Zrotation Xrotation Yrotation
    JOINT l_low_leg
    {
      OFFSET -0.901622 -41.0132 -0.693059
      CHANNELS 6 Xposition Yposition Zposition Zrotation Xrotation Yrotation
      JOINT l_foot
      {
        OFFSET -2.46068 -42.7371 -6.39839
        CHANNELS 6 Xposition Yposition Zposition Zrotation Xrotation Yrotation
        JOINT l_toes
        {
          OFFSET 0.82413 -10.4558 13.2182
          CHANNELS 6 Xposition Yposition Zposition Zrotation Xrotation Yrotation
          End Site
          {
            OFFSET 0 0 0.1
          }
        }
      }
    }
  }
  JOINT r_up_leg
  {
    OFFSET -9.77065 -4.44866 2.1502
    CHANNELS 6 Xposition Yposition Zposition Zrotation Xrotation Yrotation
    JOINT r_low_leg
    {
      OFFSET 0.901622 -41.0132 -0.693059
      CHANNELS 6 Xposition Yposition Zposition Zrotation Xrotation Yrotation
      JOINT r_foot
      {
        OFFSET 2.46068 -42.7371 -6.39839
        CHANNELS 6 Xposition Yposition Zposition Zrotation Xrotation Yrotation
        JOINT r_toes
        {
          OFFSET -0.82413 -10.4558 13.2182
          CHANNELS 6 Xposition Yposition Zposition Zrotation Xrotation Yrotation
          End Site
          {
            OFFSET 0 0 0.1
          }
        }
      }
    }
  }
}
MOTION
Frames: 4
Frame Time: 0.016667
-17.8742 99.6185 34.0451 -1.50452 -3.02841 -75.8198 0 5.37224 -1.21793 0.0516679 2.49895 0.802279 0 5.94127 1.13336 0.608455 3.08202 0.735585 -1.08535e-17 6.33601 0.121658 0.64716 3.63668 0.909735 -1.16841e-17 6.88189 -0.46916 0.616745 3.54531 1.00478 -2.08699e-17 8.0451 -1.59297 0.766653 3.12627 1.05347 -2.67949e-17 10.0463 -0.967353 1.11432 2.68952 0.832935 -3.07187e-17 11.1612 1.66806 0.130552 0.890795 -0.429595 -1.36661e-17 5.06312 0.756688 0.598934 2.04925 -5.54395 -1.91632e-17 5.09976 0.446172 1.50879 -4.08552 -2.58489 -2.12574e-17 5.10962 0.809285 1.02567 -2.1429 -4.30002 1.30426 -8.04703 7.96922 5.48627 2.30207 -0.55511 13.7035 3.43734 -3.45766 -72.2508 29.3232 -15.1581 30.8964 0.0632652 0.14496 8.59219 -3.59583 -45.9483 25.6348 0.0524902 0.120274 -0.769685 -27.3558 -6.3526 -1.30426 -8.04702 7.96912 -13.8066 -0.816912 -3.0486 -13.7035 3.43734 -3.45766 67.2858 30.352 17.4747 -30.8964 0.0632652 0.14496 -10.6782 -17.3625 117.654 -25.6348 0.0524901 0.120274 27.3291 -69.3485 32.1221 9.77065 -4.44866 2.1502 -8.14831 -10.6658 -58.8693 -0.901622 -41.0132 -0.693059 -2.48675 9.24786 0.0393678 -2.46068 -42.7371 -6.39839 -15.2403 7.62358 18.7911 0.82413 -10.4558 13.2182 -3.57312e-15 -9.49247e-16 1.66533e-16 -9.77065 -4.44866 2.1502 -3.98969 2.1947 60.5045 0.901622 -41.0132 -0.693059 0.576121 2.15156 0.0267397 2.46068 -42.7371 -6.39839 4.85329 -0.317931 -15.964 -0.82413 -10.4558 13.2182 -3.29654e-16 -5.75751e-16 -1.27554e-14 
-18.1776 99.5643 34.7728 -1.95731 -2.80568 -78.4419 0 5.37224 -1.21793 0.0010881 2.58942 0.731159 0 5.94127 1.13336 0.572851 3.16305 0.654303 -1.08535e-17 6.33601 0.121658 0.632353 3.69286 0.844063 -1.16841e-17 6.88189 -0.46916 0.625322 3.4859 0.944832 -2.08699e-17 8.0451 -1.59297 0.804329 3.00752 0.997469 -2.67949e-17 10.0463 -0.967353 1.14886 2.55346 0.770606 -3.07187e-17 11.1612 1.66806 0.116012 0.911294 -0.431016 -1.36661e-17 5.06312 0.756688 0.569653 1.92989 -5.86201 -1.91632e-17 5.09976 0.446172 1.55176 -4.07449 -2.73404 -2.12574e-17 5.10962 0.809285 1.09689 -1.86281 -4.23445 1.30426 -8.04703 7.96922 5.67187 2.29771 -0.612069 13.7035 3.43734 -3.45766 -72.3252 28.9863 -15.1819 30.8964 0.0632652 0.14496 8.56005 -3.56314 -45.7296 25.6348 0.0524902 0.120274 -0.652558 -27.6413 -6.23524 -1.30426 -8.04702 7.96912 -14.0327 -0.725428 -3.09723 -13.7035 3.43734 -3.45766 67.2828 30.171 16.8367 -30.8964 0.0632652 0.14496 -10.6219 -17.4651 118.23 -25.6348 0.0524901 0.120274 28.498 -70.0686 33.378 9.77065 -4.44866 2.1502 -7.85558 -9.94999 -57.9584 -0.901622 -41.0132 -0.693059 -2.49383 9.27386 0.0400531 -2.46068 -42.7371 -6.39839 -14.7624 6.91826 18.515 0.82413 -10.4558 13.2182 -3.08115e-16 -8.05544e-16 2.28291e-17 -9.77065 -4.44866 2.1502 -3.88272 2.28298 61.9728 0.901622 -41.0132 -0.693059 0.705341 2.63427 0.0297692 2.46068 -42.7371 -6.39839 4.899 -0.493375 -16.0038 -0.82413 -10.4558 13.2182 -6.60961e-16 -5.57063e-16 -1.2743e-14 
-18.4788 99.5323 35.527 -2.34912 -2.68877 -80.9841 0 5.37224 -1.21793 -0.105234 2.69075 0.659277 0 5.94127 1.13336 0.484571 3.24707 0.566121 -1.08535e-17 6.33601 0.121658 0.576633 3.74738 0.772068 -1.16841e-17 6.88189 -0.46916 0.604686 3.42132 0.878869 -2.08699e-17 8.0451 -1.59297 0.825818 2.88089 0.937405 -2.67949e-17 10.0463 -0.967353 1.17863 2.409 0.702853 -3.07187e-17 11.1612 1.66806 0.10186 0.928632 -0.430127 -1.36661e-17 5.06312 0.756688 0.516078 1.74455 -6.21662 -1.91632e-17 5.09976 0.446172 1.62695 -4.06938 -2.90155 -2.12574e-17 5.10962 0.809285 1.21216 -1.593 -4.17086 1.30426 -8.04703 7.96922 5.81489 2.29816 -0.704117 13.7035 3.43734 -3.45766 -72.3436 28.6171 -15.2228 30.8964 0.0632652 0.14496 8.52884 -3.53164 -45.5179 25.6348 0.0524902 0.120274 -0.46218 -27.8724 -6.03775 -1.30426 -8.04702 7.96912 -14.1963 -0.635049 -3.10212 -13.7035 3.43734 -3.45766 67.3612 29.8694 16.1934 -30.8964 0.0632652 0.14496 -10.5674 -17.5621 118.776 -25.6348 0.0524901 0.120274 29.6791 -70.7778 34.6089 9.77065 -4.44866 2.1502 -7.68816 -9.27088 -56.7852 -0.901622 -41.0132 -0.693059 -2.46255 9.15895 0.0370491 -2.46068 -42.7371 -6.39839 -14.3282 6.46672 18.3092 0.82413 -10.4558 13.2182 2.31893e-17 -7.95191e-16 1.24759e-17 -9.77065 -4.44866 2.1502 -3.85706 2.26765 63.3239 0.901622 -41.0132 -0.693059 0.885139 3.30574 0.032172 2.46068 -42.7371 -6.39839 4.94474 -0.700496 -16.0513 -0.82413 -10.4558 13.2182 -9.92265e-16 -5.4671e-16 -1.27223e-14 
-18.7406 99.509 36.3028 -2.57659 -2.65716 -83.4103 0 5.37224 -1.21793 -0.265162 2.80105 0.598091 0 5.94127 1.13336 0.346866 3.32792 0.48354 -1.08535e-17 6.33601 0.121658 0.479671 3.79196 0.702264 -1.16841e-17 6.88189 -0.46916 0.551085 3.35179 0.813827 -2.08699e-17 8.0451 -1.59297 0.819037 2.75012 0.87981 -2.67949e-17 10.0463 -0.967353 1.19137 2.26103 0.642045 -3.07187e-17 11.1612 1.66806 0.0899846 0.944107 -0.427306 -1.36661e-17 5.06312 0.756688 0.44486 1.58424 -6.62476 -1.91632e-17 5.09976 0.446172 1.72288 -4.09372 -3.09582 -2.12574e-17 5.10962 0.809285 1.43049 -1.51241 -4.163 1.30426 -8.04703 7.96922 5.91512 2.31786 -0.786719 13.7035 3.43734 -3.45766 -72.2824 28.2168 -15.397 30.8964 0.0632652 0.14496 8.49875 -3.50148 -45.3146 25.6348 0.0524902 0.120274 -0.177239 -27.8284 -5.82888 -1.30426 -8.04702 7.96912 -14.2938 -0.546849 -3.09877 -13.7035 3.43734 -3.45766 67.5959 29.4596 15.5745 -30.8964 0.0632652 0.14496 -10.5219 -17.6413 119.226 -25.6348 0.0524901 0.120274 30.7162 -71.2931 35.6833 9.77065 -4.44866 2.1502 -7.67208 -8.79513 -55.7565 -0.901622 -41.0132 -0.693059 -2.40269 8.93888 0.0314761 -2.46068 -42.7371 -6.39839 -14.0623 6.50772 18.2432 0.82413 -10.4558 13.2182 -2.28269e-15 -8.98154e-16 1.15439e-16 -9.77065 -4.44866 2.1502 -3.94877 2.03988 64.3625 0.901622 -41.0132 -0.693059 1.08774 4.06191 0.0323514 2.46068 -42.7371 -6.39839 5.1456 -1.01316 -16.1252 -0.82413 -10.4558 13.2182 -6.64274e-16 -5.56959e-16 -1.27428e-14 
